<?xml version="1.0" encoding="UTF-8"?>
<svg id="Camada_1" data-name="Camada 1" xmlns="http://www.w3.org/2000/svg" viewBox="0 0 872.76 314.17">
  <defs>
    <style>
      .cls-1, .cls-2 {
        fill: #fff;
      }

      .cls-2 {
        font-family: MyriadPro-Regular, 'Myriad Pro';
        font-size: 53.44px;
      }

      .cls-2, .cls-3 {
        stroke: #fff;
        stroke-miterlimit: 10;
        stroke-width: 3px;
      }

      .cls-3 {
        fill: #e5232b;
      }
    </style>
  </defs>
  <path class="cls-1" d="M406.34,0c38.8,50.12,80.77,97.95,117.44,149.64,1.02.69,5.11-3.42,5.11-3.87V0h92.88v309.59h-83.85l-125.61-158.18-7.26-4.35v162.54h-92.88V0h94.17Z"/>
  <path class="cls-1" d="M214.16,144.43c4.95-6.4,14.16-8.69,20.69-14.09C292.23,82.98,250.2,6.9,181.89,0H0v309.59h187.05c19.84,0,53.84-18.89,68.08-32.53,44.56-42.7,19.68-121.59-40.97-132.63ZM95.46,69.67c14.45,1.78,34.06-2.43,47.73,0,18.27,3.22,26.21,24.61,16.54,39.73-1.42,2.22-12.69,9.29-13.96,9.29h-50.31v-49.02ZM158.67,237.36h-63.21v-49.02h63.21c2.58,0,16.02,7.3,18.27,10.11,11.4,14.32-1.65,38.91-18.27,38.91Z"/>
  <path class="cls-1" d="M766.25,38.7v270.89h-95.46v-179.31c29.93-24.65,57.72-64.78,87.7-87.73,2.6-1.99,3.25-4.98,7.76-3.85Z"/>
  <polygon class="cls-1" points="763.67 0 670.79 90.3 670.79 0 763.67 0"/>
  <g>
    <circle class="cls-3" cx="838.48" cy="279.89" r="32.78"/>
    <text class="cls-2" transform="translate(821.06 298.26) scale(1.19 1)"><tspan x="0" y="0">R</tspan></text>
  </g>
</svg>